<svg width="36" height="37" viewBox="0 0 36 37" fill="none" xmlns="http://www.w3.org/2000/svg">
<rect width="36" height="37" rx="12" fill="#FFE9CA"/>
<path fill-rule="evenodd" clip-rule="evenodd" d="M15 13.5C15 12.7044 15.3161 11.9413 15.8787 11.3787C16.4413 10.8161 17.2044 10.5 18 10.5C18.7956 10.5 19.5587 10.8161 20.1213 11.3787C20.6839 11.9413 21 12.7044 21 13.5V15.5H15V13.5ZM13 15.5V13.5C13 12.1739 13.5268 10.9021 14.4645 9.96447C15.4021 9.02678 16.6739 8.5 18 8.5C19.3261 8.5 20.5979 9.02678 21.5355 9.96447C22.4732 10.9021 23 12.1739 23 13.5V15.5H25C25.2652 15.5 25.5196 15.6054 25.7071 15.7929C25.8946 15.9804 26 16.2348 26 16.5V25.5C26 26.2956 25.6839 27.0587 25.1213 27.6213C24.5587 28.1839 23.7956 28.5 23 28.5H13C12.2044 28.5 11.4413 28.1839 10.8787 27.6213C10.3161 27.0587 10 26.2956 10 25.5V16.5C10 16.2348 10.1054 15.9804 10.2929 15.7929C10.4804 15.6054 10.7348 15.5 11 15.5H13ZM19 22C19 21.6022 19.158 21.2206 19.4393 20.9393C19.7206 20.658 20.1022 20.5 20.5 20.5H20.51C20.9078 20.5 21.2894 20.658 21.5707 20.9393C21.852 21.2206 22.01 21.6022 22.01 22V22.01C22.01 22.4078 21.852 22.7894 21.5707 23.0707C21.2894 23.352 20.9078 23.51 20.51 23.51H20.5C20.1022 23.51 19.7206 23.352 19.4393 23.0707C19.158 22.7894 19 22.4078 19 22.01V22Z" fill="#FFA21E"/>
</svg>
