<svg width="36" height="37" viewBox="0 0 36 37" fill="none" xmlns="http://www.w3.org/2000/svg">
<rect width="36" height="37" rx="12" fill="#F5D9FF"/>
<path d="M22.5 21H14.167V27.25H22.5V21ZM21.4585 8.5H15.2085V12.6665H21.4585V8.5Z" stroke="#D156FF" stroke-linecap="round" stroke-linejoin="round"/>
<path d="M26 12.9443V27.3891C26 27.535 25.9741 27.6795 25.9238 27.8143C25.8736 27.9491 25.7999 28.0716 25.707 28.1748C25.6141 28.278 25.5038 28.3598 25.3825 28.4156C25.2611 28.4714 25.131 28.5001 24.9997 28.5H11.0003C10.869 28.5001 10.7389 28.4714 10.6175 28.4156C10.4962 28.3598 10.3859 28.278 10.293 28.1748C10.2001 28.0716 10.1264 27.9491 10.0762 27.8143C10.0259 27.6795 10 27.535 10 27.3891V9.61093C10 9.465 10.0259 9.32049 10.0762 9.18567C10.1264 9.05085 10.2001 8.92836 10.293 8.8252C10.3859 8.72203 10.4962 8.64021 10.6175 8.58441C10.7389 8.52861 10.869 8.49993 11.0003 8.5H21.9998L26 12.9443Z" stroke="#D156FF" stroke-linecap="round" stroke-linejoin="round"/>
</svg>
