<svg width="36" height="37" viewBox="0 0 36 37" fill="none" xmlns="http://www.w3.org/2000/svg">
<rect width="36" height="37" rx="12" fill="#DCE5FF"/>
<path d="M24.2222 8.5C24.6707 8.49981 25.1027 8.72401 25.4316 9.12764C25.7605 9.53128 25.9619 10.0845 25.9956 10.6765L26 10.8529V15.5588C26.0001 16.1524 25.8308 16.7242 25.5258 17.1595C25.2208 17.5947 24.8028 17.8614 24.3556 17.9059L24.2222 17.9118H11.7778C11.3293 17.912 10.8973 17.6878 10.5684 17.2841C10.2395 16.8805 10.0381 16.3272 10.0044 15.7353L10 15.5588V10.8529C9.99986 10.2593 10.1693 9.68757 10.4742 9.2523C10.7792 8.81702 11.1972 8.5504 11.6444 8.50588L11.7778 8.5H24.2222ZM24.2222 10.8529H11.7778V15.5588H24.2222V10.8529ZM16.2222 12.0294C16.4488 12.0297 16.6667 12.1446 16.8314 12.3504C16.9962 12.5563 17.0953 12.8376 17.1086 13.1369C17.1219 13.4363 17.0483 13.731 16.9029 13.961C16.7575 14.1909 16.5512 14.3387 16.3262 14.3741L16.2222 14.3824H14.4444C14.2179 14.382 14 14.2672 13.8352 14.0614C13.6705 13.8555 13.5713 13.5742 13.5581 13.2748C13.5448 12.9755 13.6184 12.6807 13.7638 12.4508C13.9092 12.2208 14.1155 12.0731 14.3404 12.0376L14.4444 12.0294H16.2222ZM24.2222 19.0882C24.6707 19.088 25.1027 19.3122 25.4316 19.7159C25.7605 20.1195 25.9619 20.6728 25.9956 21.2647L26 21.4412V26.1471C26.0001 26.7407 25.8308 27.3124 25.5258 27.7477C25.2208 28.183 24.8028 28.4496 24.3556 28.4941L24.2222 28.5H11.7778C11.3293 28.5002 10.8973 28.276 10.5684 27.8724C10.2395 27.4687 10.0381 26.9155 10.0044 26.3235L10 26.1471V21.4412C9.99986 20.8476 10.1693 20.2758 10.4742 19.8405C10.7792 19.4053 11.1972 19.1386 11.6444 19.0941L11.7778 19.0882H24.2222ZM24.2222 21.4412H11.7778V26.1471H24.2222V21.4412ZM16.2222 22.6176C16.458 22.6176 16.6841 22.7416 16.8508 22.9622C17.0175 23.1829 17.1111 23.4821 17.1111 23.7941C17.1111 24.1061 17.0175 24.4054 16.8508 24.626C16.6841 24.8466 16.458 24.9706 16.2222 24.9706H14.4444C14.2087 24.9706 13.9826 24.8466 13.8159 24.626C13.6492 24.4054 13.5556 24.1061 13.5556 23.7941C13.5556 23.4821 13.6492 23.1829 13.8159 22.9622C13.9826 22.7416 14.2087 22.6176 14.4444 22.6176H16.2222Z" fill="#6D69FF"/>
</svg>
